<svg xmlns="http://www.w3.org/2000/svg" width="480" height="480" viewBox="0 0 480 480">
<rect width="480" height="480" rx="22" fill="#0f1115"/>
<g opacity="0.12"><rect x="65" y="56" width="350" height="350" rx="3" fill="#5a6f9a"/>
<rect x="66" y="57" width="36" height="36" rx="2" fill="#222732"/>
<text x="84.0" y="75.0" fill="#e8ebf0" font-size="22" font-weight="600" text-anchor="middle" dominant-baseline="central" font-family="Segoe UI, Helvetica, Arial, sans-serif">5</text>
<rect x="104" y="57" width="36" height="36" rx="2" fill="#222732"/>
<text x="122.0" y="75.0" fill="#e8ebf0" font-size="22" font-weight="600" text-anchor="middle" dominant-baseline="central" font-family="Segoe UI, Helvetica, Arial, sans-serif">3</text>
<rect x="142" y="57" width="36" height="36" rx="2" fill="#222732"/>
<text x="160.0" y="75.0" fill="{2: 4, 20: 5, 24: 7}" font-size="22" font-weight="500" text-anchor="middle" dominant-baseline="central" font-family="Segoe UI, Helvetica, Arial, sans-serif">4</text>
<rect x="184" y="57" width="36" height="36" rx="2" fill="#222732"/>
<rect x="222" y="57" width="36" height="36" rx="2" fill="#222732"/>
<text x="240.0" y="75.0" fill="#e8ebf0" font-size="22" font-weight="600" text-anchor="middle" dominant-baseline="central" font-family="Segoe UI, Helvetica, Arial, sans-serif">7</text>
<rect x="260" y="57" width="36" height="36" rx="2" fill="#222732"/>
<rect x="302" y="57" width="36" height="36" rx="2" fill="#222732"/>
<rect x="340" y="57" width="36" height="36" rx="2" fill="#222732"/>
<rect x="378" y="57" width="36" height="36" rx="2" fill="#222732"/>
<rect x="66" y="95" width="36" height="36" rx="2" fill="#222732"/>
<text x="84.0" y="113.0" fill="#e8ebf0" font-size="22" font-weight="600" text-anchor="middle" dominant-baseline="central" font-family="Segoe UI, Helvetica, Arial, sans-serif">6</text>
<rect x="104" y="95" width="36" height="36" rx="2" fill="#222732"/>
<rect x="142" y="95" width="36" height="36" rx="2" fill="#222732"/>
<text x="148.0" y="101.0" fill="#9aa3b5" font-size="10" font-weight="400" text-anchor="middle" dominant-baseline="central" font-family="Segoe UI, Helvetica, Arial, sans-serif">1</text>
<text x="160.0" y="101.0" fill="#9aa3b5" font-size="10" font-weight="400" text-anchor="middle" dominant-baseline="central" font-family="Segoe UI, Helvetica, Arial, sans-serif">2</text>
<text x="148.0" y="113.0" fill="#9aa3b5" font-size="10" font-weight="400" text-anchor="middle" dominant-baseline="central" font-family="Segoe UI, Helvetica, Arial, sans-serif">4</text>
<rect x="184" y="95" width="36" height="36" rx="2" fill="#222732"/>
<text x="202.0" y="113.0" fill="#e8ebf0" font-size="22" font-weight="600" text-anchor="middle" dominant-baseline="central" font-family="Segoe UI, Helvetica, Arial, sans-serif">1</text>
<rect x="222" y="95" width="36" height="36" rx="2" fill="#222732"/>
<text x="240.0" y="113.0" fill="#e8ebf0" font-size="22" font-weight="600" text-anchor="middle" dominant-baseline="central" font-family="Segoe UI, Helvetica, Arial, sans-serif">9</text>
<rect x="260" y="95" width="36" height="36" rx="2" fill="#222732"/>
<text x="278.0" y="113.0" fill="#e8ebf0" font-size="22" font-weight="600" text-anchor="middle" dominant-baseline="central" font-family="Segoe UI, Helvetica, Arial, sans-serif">5</text>
<rect x="302" y="95" width="36" height="36" rx="2" fill="#222732"/>
<rect x="340" y="95" width="36" height="36" rx="2" fill="#222732"/>
<rect x="378" y="95" width="36" height="36" rx="2" fill="#222732"/>
<rect x="66" y="133" width="36" height="36" rx="2" fill="#222732"/>
<rect x="104" y="133" width="36" height="36" rx="2" fill="#222732"/>
<text x="122.0" y="151.0" fill="#e8ebf0" font-size="22" font-weight="600" text-anchor="middle" dominant-baseline="central" font-family="Segoe UI, Helvetica, Arial, sans-serif">9</text>
<rect x="142" y="133" width="36" height="36" rx="2" fill="#222732"/>
<text x="160.0" y="151.0" fill="#e8ebf0" font-size="22" font-weight="600" text-anchor="middle" dominant-baseline="central" font-family="Segoe UI, Helvetica, Arial, sans-serif">8</text>
<rect x="184" y="133" width="36" height="36" rx="2" fill="#222732"/>
<rect x="222" y="133" width="36" height="36" rx="2" fill="#222732"/>
<rect x="260" y="133" width="36" height="36" rx="2" fill="#222732"/>
<rect x="302" y="133" width="36" height="36" rx="2" fill="#222732"/>
<text x="320.0" y="151.0" fill="{2: 4, 20: 5, 24: 7}" font-size="22" font-weight="500" text-anchor="middle" dominant-baseline="central" font-family="Segoe UI, Helvetica, Arial, sans-serif">7</text>
<rect x="340" y="133" width="36" height="36" rx="2" fill="#222732"/>
<text x="358.0" y="151.0" fill="#e8ebf0" font-size="22" font-weight="600" text-anchor="middle" dominant-baseline="central" font-family="Segoe UI, Helvetica, Arial, sans-serif">6</text>
<rect x="378" y="133" width="36" height="36" rx="2" fill="#222732"/>
<rect x="66" y="175" width="36" height="36" rx="2" fill="#222732"/>
<text x="84.0" y="193.0" fill="#e8ebf0" font-size="22" font-weight="600" text-anchor="middle" dominant-baseline="central" font-family="Segoe UI, Helvetica, Arial, sans-serif">8</text>
<rect x="104" y="175" width="36" height="36" rx="2" fill="#222732"/>
<rect x="142" y="175" width="36" height="36" rx="2" fill="#222732"/>
<rect x="184" y="175" width="36" height="36" rx="2" fill="#222732"/>
<rect x="222" y="175" width="36" height="36" rx="2" fill="#222732"/>
<text x="240.0" y="193.0" fill="#e8ebf0" font-size="22" font-weight="600" text-anchor="middle" dominant-baseline="central" font-family="Segoe UI, Helvetica, Arial, sans-serif">6</text>
<rect x="260" y="175" width="36" height="36" rx="2" fill="#222732"/>
<rect x="302" y="175" width="36" height="36" rx="2" fill="#222732"/>
<rect x="340" y="175" width="36" height="36" rx="2" fill="#222732"/>
<rect x="378" y="175" width="36" height="36" rx="2" fill="#222732"/>
<text x="396.0" y="193.0" fill="#e8ebf0" font-size="22" font-weight="600" text-anchor="middle" dominant-baseline="central" font-family="Segoe UI, Helvetica, Arial, sans-serif">3</text>
<rect x="66" y="213" width="36" height="36" rx="2" fill="#222732"/>
<text x="84.0" y="231.0" fill="#e8ebf0" font-size="22" font-weight="600" text-anchor="middle" dominant-baseline="central" font-family="Segoe UI, Helvetica, Arial, sans-serif">4</text>
<rect x="104" y="213" width="36" height="36" rx="2" fill="#222732"/>
<rect x="142" y="213" width="36" height="36" rx="2" fill="#222732"/>
<rect x="184" y="213" width="36" height="36" rx="2" fill="#222732"/>
<text x="202.0" y="231.0" fill="#e8ebf0" font-size="22" font-weight="600" text-anchor="middle" dominant-baseline="central" font-family="Segoe UI, Helvetica, Arial, sans-serif">8</text>
<rect x="222" y="213" width="36" height="36" rx="2" fill="#222732"/>
<rect x="260" y="213" width="36" height="36" rx="2" fill="#222732"/>
<text x="278.0" y="231.0" fill="#e8ebf0" font-size="22" font-weight="600" text-anchor="middle" dominant-baseline="central" font-family="Segoe UI, Helvetica, Arial, sans-serif">3</text>
<rect x="302" y="213" width="36" height="36" rx="2" fill="#222732"/>
<rect x="340" y="213" width="36" height="36" rx="2" fill="#222732"/>
<rect x="378" y="213" width="36" height="36" rx="2" fill="#222732"/>
<text x="396.0" y="231.0" fill="#e8ebf0" font-size="22" font-weight="600" text-anchor="middle" dominant-baseline="central" font-family="Segoe UI, Helvetica, Arial, sans-serif">1</text>
<rect x="66" y="251" width="36" height="36" rx="2" fill="#222732"/>
<text x="84.0" y="269.0" fill="#e8ebf0" font-size="22" font-weight="600" text-anchor="middle" dominant-baseline="central" font-family="Segoe UI, Helvetica, Arial, sans-serif">7</text>
<rect x="104" y="251" width="36" height="36" rx="2" fill="#222732"/>
<rect x="142" y="251" width="36" height="36" rx="2" fill="#222732"/>
<rect x="184" y="251" width="36" height="36" rx="2" fill="#222732"/>
<rect x="222" y="251" width="36" height="36" rx="2" fill="#222732"/>
<text x="240.0" y="269.0" fill="#e8ebf0" font-size="22" font-weight="600" text-anchor="middle" dominant-baseline="central" font-family="Segoe UI, Helvetica, Arial, sans-serif">2</text>
<rect x="260" y="251" width="36" height="36" rx="2" fill="#222732"/>
<rect x="302" y="251" width="36" height="36" rx="2" fill="#222732"/>
<rect x="340" y="251" width="36" height="36" rx="2" fill="#222732"/>
<rect x="378" y="251" width="36" height="36" rx="2" fill="#222732"/>
<text x="396.0" y="269.0" fill="#e8ebf0" font-size="22" font-weight="600" text-anchor="middle" dominant-baseline="central" font-family="Segoe UI, Helvetica, Arial, sans-serif">6</text>
<rect x="66" y="293" width="36" height="36" rx="2" fill="#222732"/>
<rect x="104" y="293" width="36" height="36" rx="2" fill="#222732"/>
<text x="122.0" y="311.0" fill="#e8ebf0" font-size="22" font-weight="600" text-anchor="middle" dominant-baseline="central" font-family="Segoe UI, Helvetica, Arial, sans-serif">6</text>
<rect x="142" y="293" width="36" height="36" rx="2" fill="#222732"/>
<rect x="184" y="293" width="36" height="36" rx="2" fill="#222732"/>
<rect x="222" y="293" width="36" height="36" rx="2" fill="#222732"/>
<rect x="260" y="293" width="36" height="36" rx="2" fill="#222732"/>
<rect x="302" y="293" width="36" height="36" rx="2" fill="#222732"/>
<text x="320.0" y="311.0" fill="#e8ebf0" font-size="22" font-weight="600" text-anchor="middle" dominant-baseline="central" font-family="Segoe UI, Helvetica, Arial, sans-serif">2</text>
<rect x="340" y="293" width="36" height="36" rx="2" fill="#222732"/>
<text x="358.0" y="311.0" fill="#e8ebf0" font-size="22" font-weight="600" text-anchor="middle" dominant-baseline="central" font-family="Segoe UI, Helvetica, Arial, sans-serif">8</text>
<rect x="378" y="293" width="36" height="36" rx="2" fill="#222732"/>
<rect x="66" y="331" width="36" height="36" rx="2" fill="#222732"/>
<rect x="104" y="331" width="36" height="36" rx="2" fill="#222732"/>
<rect x="142" y="331" width="36" height="36" rx="2" fill="#222732"/>
<rect x="184" y="331" width="36" height="36" rx="2" fill="#222732"/>
<text x="202.0" y="349.0" fill="#e8ebf0" font-size="22" font-weight="600" text-anchor="middle" dominant-baseline="central" font-family="Segoe UI, Helvetica, Arial, sans-serif">4</text>
<rect x="222" y="331" width="36" height="36" rx="2" fill="#222732"/>
<text x="240.0" y="349.0" fill="#e8ebf0" font-size="22" font-weight="600" text-anchor="middle" dominant-baseline="central" font-family="Segoe UI, Helvetica, Arial, sans-serif">1</text>
<rect x="260" y="331" width="36" height="36" rx="2" fill="#222732"/>
<text x="278.0" y="349.0" fill="#e8ebf0" font-size="22" font-weight="600" text-anchor="middle" dominant-baseline="central" font-family="Segoe UI, Helvetica, Arial, sans-serif">9</text>
<rect x="302" y="331" width="36" height="36" rx="2" fill="#222732"/>
<rect x="340" y="331" width="36" height="36" rx="2" fill="#222732"/>
<rect x="378" y="331" width="36" height="36" rx="2" fill="#222732"/>
<text x="396.0" y="349.0" fill="#e8ebf0" font-size="22" font-weight="600" text-anchor="middle" dominant-baseline="central" font-family="Segoe UI, Helvetica, Arial, sans-serif">5</text>
<rect x="66" y="369" width="36" height="36" rx="2" fill="#222732"/>
<rect x="104" y="369" width="36" height="36" rx="2" fill="#222732"/>
<rect x="142" y="369" width="36" height="36" rx="2" fill="#222732"/>
<rect x="184" y="369" width="36" height="36" rx="2" fill="#222732"/>
<rect x="222" y="369" width="36" height="36" rx="2" fill="#222732"/>
<text x="240.0" y="387.0" fill="#e8ebf0" font-size="22" font-weight="600" text-anchor="middle" dominant-baseline="central" font-family="Segoe UI, Helvetica, Arial, sans-serif">8</text>
<rect x="260" y="369" width="36" height="36" rx="2" fill="#222732"/>
<rect x="302" y="369" width="36" height="36" rx="2" fill="#222732"/>
<rect x="340" y="369" width="36" height="36" rx="2" fill="#222732"/>
<text x="358.0" y="387.0" fill="#e8ebf0" font-size="22" font-weight="600" text-anchor="middle" dominant-baseline="central" font-family="Segoe UI, Helvetica, Arial, sans-serif">7</text>
<rect x="378" y="369" width="36" height="36" rx="2" fill="#222732"/>
<text x="396.0" y="387.0" fill="#e8ebf0" font-size="22" font-weight="600" text-anchor="middle" dominant-baseline="central" font-family="Segoe UI, Helvetica, Arial, sans-serif">9</text>
</g><rect x="0" y="0" width="480" height="480" rx="22" fill="#0f1115" opacity="0.8"/>
<text x="240" y="210" fill="#e8ebf0" font-size="46" font-weight="700" text-anchor="middle" dominant-baseline="central" font-family="Segoe UI, Helvetica, Arial, sans-serif">In pausa</text>
<text x="240" y="270" fill="#8b93a3" font-size="18" font-weight="400" text-anchor="middle" dominant-baseline="central" font-family="Segoe UI, Helvetica, Arial, sans-serif">tocca per riprendere</text>
</svg>
