<svg xmlns="http://www.w3.org/2000/svg" width="480" height="480" viewBox="0 0 480 480">
<rect width="480" height="480" rx="22" fill="#0f1115"/>
<rect x="0" y="0" width="480" height="50" rx="0" fill="#171a21"/>
<text x="16" y="25" fill="#e8ebf0" font-size="26" font-weight="600" text-anchor="start" dominant-baseline="central" font-family="Segoe UI, Helvetica, Arial, sans-serif">04:12</text>
<rect x="294" y="7" width="46" height="36" rx="8" fill="#5b8cff"/>
<g transform="translate(317,25) rotate(45)"><rect x="-3" y="-9" width="6" height="14" rx="1" fill="#e8ebf0"/><polygon points="-3,5 3,5 0,10" fill="#e8ebf0"/><rect x="-3" y="-11" width="6" height="3" fill="#5b8cff"/></g>
<rect x="346" y="7" width="46" height="36" rx="8" fill="#23304d"/>
<rect x="363" y="15" width="4" height="20" rx="1" fill="#e8ebf0"/>
<rect x="371" y="15" width="4" height="20" rx="1" fill="#e8ebf0"/>
<rect x="398" y="7" width="74" height="36" rx="8" fill="#23304d"/>
<text x="435" y="25" fill="#e8ebf0" font-size="16" font-weight="600" text-anchor="middle" dominant-baseline="central" font-family="Segoe UI, Helvetica, Arial, sans-serif">MENU</text>
<rect x="65" y="56" width="350" height="350" rx="3" fill="#5a6f9a"/>
<rect x="66" y="57" width="36" height="36" rx="2" fill="#2a3142"/>
<text x="84.0" y="75.0" fill="#e8ebf0" font-size="22" font-weight="600" text-anchor="middle" dominant-baseline="central" font-family="Segoe UI, Helvetica, Arial, sans-serif">5</text>
<rect x="104" y="57" width="36" height="36" rx="2" fill="#2a3142"/>
<text x="122.0" y="75.0" fill="#e8ebf0" font-size="22" font-weight="600" text-anchor="middle" dominant-baseline="central" font-family="Segoe UI, Helvetica, Arial, sans-serif">3</text>
<rect x="142" y="57" width="36" height="36" rx="2" fill="#3b6fe0"/>
<text x="160.0" y="75.0" fill="{2: 4, 20: 5, 24: 7}" font-size="22" font-weight="500" text-anchor="middle" dominant-baseline="central" font-family="Segoe UI, Helvetica, Arial, sans-serif">4</text>
<rect x="184" y="57" width="36" height="36" rx="2" fill="#2a3142"/>
<rect x="222" y="57" width="36" height="36" rx="2" fill="#2a3142"/>
<text x="240.0" y="75.0" fill="#e8ebf0" font-size="22" font-weight="600" text-anchor="middle" dominant-baseline="central" font-family="Segoe UI, Helvetica, Arial, sans-serif">7</text>
<rect x="260" y="57" width="36" height="36" rx="2" fill="#2a3142"/>
<rect x="302" y="57" width="36" height="36" rx="2" fill="#2a3142"/>
<rect x="340" y="57" width="36" height="36" rx="2" fill="#2a3142"/>
<rect x="378" y="57" width="36" height="36" rx="2" fill="#2a3142"/>
<rect x="66" y="95" width="36" height="36" rx="2" fill="#2a3142"/>
<text x="84.0" y="113.0" fill="#e8ebf0" font-size="22" font-weight="600" text-anchor="middle" dominant-baseline="central" font-family="Segoe UI, Helvetica, Arial, sans-serif">6</text>
<rect x="104" y="95" width="36" height="36" rx="2" fill="#2a3142"/>
<rect x="142" y="95" width="36" height="36" rx="2" fill="#2a3142"/>
<text x="148.0" y="101.0" fill="#9aa3b5" font-size="10" font-weight="400" text-anchor="middle" dominant-baseline="central" font-family="Segoe UI, Helvetica, Arial, sans-serif">1</text>
<text x="160.0" y="101.0" fill="#9aa3b5" font-size="10" font-weight="400" text-anchor="middle" dominant-baseline="central" font-family="Segoe UI, Helvetica, Arial, sans-serif">2</text>
<text x="148.0" y="113.0" fill="#9aa3b5" font-size="10" font-weight="400" text-anchor="middle" dominant-baseline="central" font-family="Segoe UI, Helvetica, Arial, sans-serif">4</text>
<rect x="184" y="95" width="36" height="36" rx="2" fill="#222732"/>
<text x="202.0" y="113.0" fill="#e8ebf0" font-size="22" font-weight="600" text-anchor="middle" dominant-baseline="central" font-family="Segoe UI, Helvetica, Arial, sans-serif">1</text>
<rect x="222" y="95" width="36" height="36" rx="2" fill="#222732"/>
<text x="240.0" y="113.0" fill="#e8ebf0" font-size="22" font-weight="600" text-anchor="middle" dominant-baseline="central" font-family="Segoe UI, Helvetica, Arial, sans-serif">9</text>
<rect x="260" y="95" width="36" height="36" rx="2" fill="#222732"/>
<text x="278.0" y="113.0" fill="#e8ebf0" font-size="22" font-weight="600" text-anchor="middle" dominant-baseline="central" font-family="Segoe UI, Helvetica, Arial, sans-serif">5</text>
<rect x="302" y="95" width="36" height="36" rx="2" fill="#222732"/>
<rect x="340" y="95" width="36" height="36" rx="2" fill="#222732"/>
<rect x="378" y="95" width="36" height="36" rx="2" fill="#222732"/>
<rect x="66" y="133" width="36" height="36" rx="2" fill="#2a3142"/>
<rect x="104" y="133" width="36" height="36" rx="2" fill="#2a3142"/>
<text x="122.0" y="151.0" fill="#e8ebf0" font-size="22" font-weight="600" text-anchor="middle" dominant-baseline="central" font-family="Segoe UI, Helvetica, Arial, sans-serif">9</text>
<rect x="142" y="133" width="36" height="36" rx="2" fill="#2a3142"/>
<text x="160.0" y="151.0" fill="#e8ebf0" font-size="22" font-weight="600" text-anchor="middle" dominant-baseline="central" font-family="Segoe UI, Helvetica, Arial, sans-serif">8</text>
<rect x="184" y="133" width="36" height="36" rx="2" fill="#222732"/>
<rect x="222" y="133" width="36" height="36" rx="2" fill="#222732"/>
<rect x="260" y="133" width="36" height="36" rx="2" fill="#222732"/>
<rect x="302" y="133" width="36" height="36" rx="2" fill="#222732"/>
<text x="320.0" y="151.0" fill="{2: 4, 20: 5, 24: 7}" font-size="22" font-weight="500" text-anchor="middle" dominant-baseline="central" font-family="Segoe UI, Helvetica, Arial, sans-serif">7</text>
<rect x="340" y="133" width="36" height="36" rx="2" fill="#222732"/>
<text x="358.0" y="151.0" fill="#e8ebf0" font-size="22" font-weight="600" text-anchor="middle" dominant-baseline="central" font-family="Segoe UI, Helvetica, Arial, sans-serif">6</text>
<rect x="378" y="133" width="36" height="36" rx="2" fill="#222732"/>
<rect x="66" y="175" width="36" height="36" rx="2" fill="#222732"/>
<text x="84.0" y="193.0" fill="#e8ebf0" font-size="22" font-weight="600" text-anchor="middle" dominant-baseline="central" font-family="Segoe UI, Helvetica, Arial, sans-serif">8</text>
<rect x="104" y="175" width="36" height="36" rx="2" fill="#222732"/>
<rect x="142" y="175" width="36" height="36" rx="2" fill="#2a3142"/>
<rect x="184" y="175" width="36" height="36" rx="2" fill="#222732"/>
<rect x="222" y="175" width="36" height="36" rx="2" fill="#222732"/>
<text x="240.0" y="193.0" fill="#e8ebf0" font-size="22" font-weight="600" text-anchor="middle" dominant-baseline="central" font-family="Segoe UI, Helvetica, Arial, sans-serif">6</text>
<rect x="260" y="175" width="36" height="36" rx="2" fill="#222732"/>
<rect x="302" y="175" width="36" height="36" rx="2" fill="#222732"/>
<rect x="340" y="175" width="36" height="36" rx="2" fill="#222732"/>
<rect x="378" y="175" width="36" height="36" rx="2" fill="#222732"/>
<text x="396.0" y="193.0" fill="#e8ebf0" font-size="22" font-weight="600" text-anchor="middle" dominant-baseline="central" font-family="Segoe UI, Helvetica, Arial, sans-serif">3</text>
<rect x="66" y="213" width="36" height="36" rx="2" fill="#4a3d6b"/>
<text x="84.0" y="231.0" fill="#e8ebf0" font-size="22" font-weight="600" text-anchor="middle" dominant-baseline="central" font-family="Segoe UI, Helvetica, Arial, sans-serif">4</text>
<rect x="104" y="213" width="36" height="36" rx="2" fill="#222732"/>
<rect x="142" y="213" width="36" height="36" rx="2" fill="#2a3142"/>
<rect x="184" y="213" width="36" height="36" rx="2" fill="#222732"/>
<text x="202.0" y="231.0" fill="#e8ebf0" font-size="22" font-weight="600" text-anchor="middle" dominant-baseline="central" font-family="Segoe UI, Helvetica, Arial, sans-serif">8</text>
<rect x="222" y="213" width="36" height="36" rx="2" fill="#222732"/>
<rect x="260" y="213" width="36" height="36" rx="2" fill="#222732"/>
<text x="278.0" y="231.0" fill="#e8ebf0" font-size="22" font-weight="600" text-anchor="middle" dominant-baseline="central" font-family="Segoe UI, Helvetica, Arial, sans-serif">3</text>
<rect x="302" y="213" width="36" height="36" rx="2" fill="#222732"/>
<rect x="340" y="213" width="36" height="36" rx="2" fill="#222732"/>
<rect x="378" y="213" width="36" height="36" rx="2" fill="#222732"/>
<text x="396.0" y="231.0" fill="#e8ebf0" font-size="22" font-weight="600" text-anchor="middle" dominant-baseline="central" font-family="Segoe UI, Helvetica, Arial, sans-serif">1</text>
<rect x="66" y="251" width="36" height="36" rx="2" fill="#222732"/>
<text x="84.0" y="269.0" fill="#e8ebf0" font-size="22" font-weight="600" text-anchor="middle" dominant-baseline="central" font-family="Segoe UI, Helvetica, Arial, sans-serif">7</text>
<rect x="104" y="251" width="36" height="36" rx="2" fill="#222732"/>
<rect x="142" y="251" width="36" height="36" rx="2" fill="#2a3142"/>
<rect x="184" y="251" width="36" height="36" rx="2" fill="#222732"/>
<rect x="222" y="251" width="36" height="36" rx="2" fill="#222732"/>
<text x="240.0" y="269.0" fill="#e8ebf0" font-size="22" font-weight="600" text-anchor="middle" dominant-baseline="central" font-family="Segoe UI, Helvetica, Arial, sans-serif">2</text>
<rect x="260" y="251" width="36" height="36" rx="2" fill="#222732"/>
<rect x="302" y="251" width="36" height="36" rx="2" fill="#222732"/>
<rect x="340" y="251" width="36" height="36" rx="2" fill="#222732"/>
<rect x="378" y="251" width="36" height="36" rx="2" fill="#222732"/>
<text x="396.0" y="269.0" fill="#e8ebf0" font-size="22" font-weight="600" text-anchor="middle" dominant-baseline="central" font-family="Segoe UI, Helvetica, Arial, sans-serif">6</text>
<rect x="66" y="293" width="36" height="36" rx="2" fill="#222732"/>
<rect x="104" y="293" width="36" height="36" rx="2" fill="#222732"/>
<text x="122.0" y="311.0" fill="#e8ebf0" font-size="22" font-weight="600" text-anchor="middle" dominant-baseline="central" font-family="Segoe UI, Helvetica, Arial, sans-serif">6</text>
<rect x="142" y="293" width="36" height="36" rx="2" fill="#2a3142"/>
<rect x="184" y="293" width="36" height="36" rx="2" fill="#222732"/>
<rect x="222" y="293" width="36" height="36" rx="2" fill="#222732"/>
<rect x="260" y="293" width="36" height="36" rx="2" fill="#222732"/>
<rect x="302" y="293" width="36" height="36" rx="2" fill="#222732"/>
<text x="320.0" y="311.0" fill="#e8ebf0" font-size="22" font-weight="600" text-anchor="middle" dominant-baseline="central" font-family="Segoe UI, Helvetica, Arial, sans-serif">2</text>
<rect x="340" y="293" width="36" height="36" rx="2" fill="#222732"/>
<text x="358.0" y="311.0" fill="#e8ebf0" font-size="22" font-weight="600" text-anchor="middle" dominant-baseline="central" font-family="Segoe UI, Helvetica, Arial, sans-serif">8</text>
<rect x="378" y="293" width="36" height="36" rx="2" fill="#222732"/>
<rect x="66" y="331" width="36" height="36" rx="2" fill="#222732"/>
<rect x="104" y="331" width="36" height="36" rx="2" fill="#222732"/>
<rect x="142" y="331" width="36" height="36" rx="2" fill="#2a3142"/>
<rect x="184" y="331" width="36" height="36" rx="2" fill="#4a3d6b"/>
<text x="202.0" y="349.0" fill="#e8ebf0" font-size="22" font-weight="600" text-anchor="middle" dominant-baseline="central" font-family="Segoe UI, Helvetica, Arial, sans-serif">4</text>
<rect x="222" y="331" width="36" height="36" rx="2" fill="#222732"/>
<text x="240.0" y="349.0" fill="#e8ebf0" font-size="22" font-weight="600" text-anchor="middle" dominant-baseline="central" font-family="Segoe UI, Helvetica, Arial, sans-serif">1</text>
<rect x="260" y="331" width="36" height="36" rx="2" fill="#222732"/>
<text x="278.0" y="349.0" fill="#e8ebf0" font-size="22" font-weight="600" text-anchor="middle" dominant-baseline="central" font-family="Segoe UI, Helvetica, Arial, sans-serif">9</text>
<rect x="302" y="331" width="36" height="36" rx="2" fill="#222732"/>
<rect x="340" y="331" width="36" height="36" rx="2" fill="#222732"/>
<rect x="378" y="331" width="36" height="36" rx="2" fill="#222732"/>
<text x="396.0" y="349.0" fill="#e8ebf0" font-size="22" font-weight="600" text-anchor="middle" dominant-baseline="central" font-family="Segoe UI, Helvetica, Arial, sans-serif">5</text>
<rect x="66" y="369" width="36" height="36" rx="2" fill="#222732"/>
<rect x="104" y="369" width="36" height="36" rx="2" fill="#222732"/>
<rect x="142" y="369" width="36" height="36" rx="2" fill="#2a3142"/>
<rect x="184" y="369" width="36" height="36" rx="2" fill="#222732"/>
<rect x="222" y="369" width="36" height="36" rx="2" fill="#222732"/>
<text x="240.0" y="387.0" fill="#e8ebf0" font-size="22" font-weight="600" text-anchor="middle" dominant-baseline="central" font-family="Segoe UI, Helvetica, Arial, sans-serif">8</text>
<rect x="260" y="369" width="36" height="36" rx="2" fill="#222732"/>
<rect x="302" y="369" width="36" height="36" rx="2" fill="#222732"/>
<rect x="340" y="369" width="36" height="36" rx="2" fill="#222732"/>
<text x="358.0" y="387.0" fill="#e8ebf0" font-size="22" font-weight="600" text-anchor="middle" dominant-baseline="central" font-family="Segoe UI, Helvetica, Arial, sans-serif">7</text>
<rect x="378" y="369" width="36" height="36" rx="2" fill="#222732"/>
<text x="396.0" y="387.0" fill="#e8ebf0" font-size="22" font-weight="600" text-anchor="middle" dominant-baseline="central" font-family="Segoe UI, Helvetica, Arial, sans-serif">9</text>
<rect x="2" y="416" width="44" height="58" rx="10" fill="#23304d"/>
<text x="24.0" y="445" fill="#e8ebf0" font-size="24" font-weight="600" text-anchor="middle" dominant-baseline="central" font-family="Segoe UI, Helvetica, Arial, sans-serif">1</text>
<rect x="50" y="416" width="44" height="58" rx="10" fill="#23304d"/>
<text x="72.0" y="445" fill="#e8ebf0" font-size="24" font-weight="600" text-anchor="middle" dominant-baseline="central" font-family="Segoe UI, Helvetica, Arial, sans-serif">2</text>
<rect x="98" y="416" width="44" height="58" rx="10" fill="#23304d"/>
<text x="120.0" y="445" fill="#e8ebf0" font-size="24" font-weight="600" text-anchor="middle" dominant-baseline="central" font-family="Segoe UI, Helvetica, Arial, sans-serif">3</text>
<rect x="146" y="416" width="44" height="58" rx="10" fill="#23304d"/>
<text x="168.0" y="445" fill="#e8ebf0" font-size="24" font-weight="600" text-anchor="middle" dominant-baseline="central" font-family="Segoe UI, Helvetica, Arial, sans-serif">4</text>
<rect x="194" y="416" width="44" height="58" rx="10" fill="#23304d"/>
<text x="216.0" y="445" fill="#e8ebf0" font-size="24" font-weight="600" text-anchor="middle" dominant-baseline="central" font-family="Segoe UI, Helvetica, Arial, sans-serif">5</text>
<rect x="242" y="416" width="44" height="58" rx="10" fill="#23304d"/>
<text x="264.0" y="445" fill="#e8ebf0" font-size="24" font-weight="600" text-anchor="middle" dominant-baseline="central" font-family="Segoe UI, Helvetica, Arial, sans-serif">6</text>
<rect x="290" y="416" width="44" height="58" rx="10" fill="#23304d"/>
<text x="312.0" y="445" fill="#e8ebf0" font-size="24" font-weight="600" text-anchor="middle" dominant-baseline="central" font-family="Segoe UI, Helvetica, Arial, sans-serif">7</text>
<rect x="338" y="416" width="44" height="58" rx="10" fill="#23304d"/>
<text x="360.0" y="445" fill="#e8ebf0" font-size="24" font-weight="600" text-anchor="middle" dominant-baseline="central" font-family="Segoe UI, Helvetica, Arial, sans-serif">8</text>
<rect x="386" y="416" width="44" height="58" rx="10" fill="#23304d"/>
<text x="408.0" y="445" fill="#e8ebf0" font-size="24" font-weight="600" text-anchor="middle" dominant-baseline="central" font-family="Segoe UI, Helvetica, Arial, sans-serif">9</text>
<rect x="434" y="416" width="44" height="58" rx="10" fill="#23304d"/>
<g transform="translate(456.0,445) rotate(-30)"><rect x="-11" y="-7" width="22" height="14" rx="3" fill="#d9657a"/><rect x="-11" y="-7" width="8" height="14" rx="3" fill="#e8ebf0" opacity="0.35"/></g>
</svg>
